<svg version="1.1" id="Layer_1" xmlns="http://www.w3.org/2000/svg" x="0" y="0" viewBox="0 0 620.3 633.9" xml:space="preserve"><style>.st0{fill:#10468a}.st1{fill:#11468b}</style><path class="st0" d="M341.4 28.5h-25.1a7.7 7.7 0 00-7.5 7.5v279a7.7 7.7 0 007.5 7.5h268a7.7 7.7 0 007.5-7.5v-26.3c0-9.6-15-9.7-15 0V315l7.5-7.5h-268l7.5 7.5V36l-7.5 7.5h25.1c9.7 0 9.7-15 0-15z"/><path class="st0" d="M319.5 86.8l29-29c4.6-4.5-2.5-11.6-7.1-7.1l-29 29c-4.5 4.6 2.6 11.7 7.1 7.1zM319.7 198.9l28.5-28.5c4.5-4.6-2.5-11.6-7.1-7.1l-28.5 28.5c-4.6 4.6 2.5 11.7 7.1 7.1zM324.1 306.8l22.2-22.2c4.6-4.5-2.5-11.6-7.1-7.1L317 299.7c-4.6 4.6 2.5 11.7 7.1 7.1zM424.4 318.7l29-29c4.5-4.6-2.5-11.6-7.1-7.1l-29 29c-4.5 4.5 2.5 11.6 7.1 7.1zM539.5 315.8l26-26c4.6-4.5-2.5-11.6-7.1-7.1l-26 26c-4.5 4.6 2.6 11.7 7.1 7.1z"/><path class="st0" d="M344.8 294h268a7.7 7.7 0 007.5-7.5V7.5a7.7 7.7 0 00-7.5-7.5h-268a7.7 7.7 0 00-7.5 7.5v279c0 9.7 15 9.7 15 0V7.5l-7.5 7.5h268l-7.5-7.5v279l7.5-7.5h-268c-9.7 0-9.7 15 0 15z"/><path class="st1" d="M281 37.3v280h-94.4V214.1H99.4v103.2H5v-280h94.4v99.2h87.2V37.3H281z"/><path class="st0" d="M276 37.3v280l5-5h-94.4l5 5V214.1a5 5 0 00-5-5H99.4a5 5 0 00-5 5v103.2l5-5H5l5 5v-280l-5 5h94.4l-5-5v99.2a5 5 0 005 5h87.2a5 5 0 005-5V37.3l-5 5H281c6.4 0 6.4-10 0-10h-94.4a5 5 0 00-5 5v99.2l5-5H99.4l5 5V37.3a5 5 0 00-5-5H5a5 5 0 00-5 5v280a5 5 0 005 5h94.4a5 5 0 005-5V214.1l-5 5h87.2l-5-5v103.2a5 5 0 005 5H281a5 5 0 005-5v-280c0-6.5-10-6.5-10 0z"/><path class="st1" d="M433.6 558.4H408v70.4h-94.4v-280h134.8c25.9 0 48.4 4.3 67.6 12.8a99.4 99.4 0 0144.4 36.8c10.4 16 15.6 34.7 15.6 56 0 20-4.5 37.5-13.6 52.4a96.3 96.3 0 01-39.2 35.6l58.8 86.4H481.2l-47.6-70.4zm37.6-128.2c-6.4-5.7-16-8.5-28.8-8.5H408v65.6h34.4c12.8 0 22.4-2.9 28.8-8.6a30.8 30.8 0 009.6-24.2c0-10.5-3.2-18.6-9.6-24.3z"/><path class="st0" d="M433.6 553.4H408a5 5 0 00-5 5v70.4l5-5h-94.4l5 5v-280l-5 5h109.7c18.6 0 37.5-.7 55.9 2.3 38.8 6.3 75.4 28 87.4 67.3 6.7 21.9 6.2 47.2-2.3 68.5a91 91 0 01-43.6 46.1 5 5 0 00-1.8 6.8l51.3 75.4 7.5 11 4.3-7.5H481.2l4.3 2.5-47.5-70.3c-3.6-5.3-12.2-.3-8.6 5l45.3 67c2 2.9 3.3 5.6 7.2 5.9 4.1.3 8.3 0 12.3 0H582c3.6 0 6.5-4.3 4.3-7.5L535 550.8l-7.5-11-1.8 6.8a102.3 102.3 0 0042.6-40.1c10.4-18.7 14-40.6 12.3-61.8a103.8 103.8 0 00-21-56.1 110 110 0 00-48-34.3c-24.5-9.5-50.3-10.6-76.2-10.6H313.6a5 5 0 00-5 5v280a5 5 0 005 5H408a5 5 0 005-5v-70.4l-5 5h25.6c6.5.1 6.5-9.9 0-9.9z"/><path class="st0" d="M474.8 426.7c-10.8-9.2-24.5-10.1-38.1-10.1H408a5 5 0 00-5 5v65.6a5 5 0 005 5h21.1c8.8 0 17.8.4 26.6-1.2a35 35 0 0028.4-24.1 40 40 0 00-9.3-40.2c-4.7-4.4-11.8 2.7-7.1 7.1 9.1 8.5 10.8 24.2 5 35.1s-18.8 13.3-30.3 13.4H408l5 5v-65.5l-5 5h26.2c11.4 0 24.2-.7 33.5 7.1 4.9 4 12-3 7.1-7.2zM255.8 552.5l25.2 21.4-46.3 52.4-28.3-24.5a161.6 161.6 0 01-89.5 25.6c-21.2 0-40.2-3.4-57.2-10.1-17-6.8-30.3-16-40-27.7a60.4 60.4 0 01-14.5-39.8c0-16.8 4.2-31.4 12.6-43.8a112.4 112.4 0 0139.4-33.5c-15.3-16.3-23-33.4-23-51.2 0-14.3 4-26.8 12-37.7a78.8 78.8 0 0133.9-25.4c14.5-6.1 31.4-9.2 50.5-9.2 17.6 0 33.1 2.7 46.5 8.2a70 70 0 0131.2 23.7 60 60 0 0111.1 35.8 60.6 60.6 0 01-11.3 36.1 106.4 106.4 0 01-35 29.3l28.3 24.1c4.9-11.1 8.3-22.8 10.3-34.8l69.2 20.7a178 178 0 01-25.1 60.4zm-102.1 4.2l-49-42.1c-10 7.1-14.9 15.7-14.9 25.6 0 6.6 3 12.1 9 16.5 6 4.3 14.2 6.5 24.7 6.5 10.4 0 20.7-2.2 30.2-6.5zm-36.2-147.6a14.3 14.3 0 00-4.8 11.1c0 3.4 1 6.7 2.9 9.6 1.9 3.1 5.4 7 10.5 11.9 14-7.7 21-15.3 21-23a13 13 0 00-4.2-10 17.3 17.3 0 00-11.9-3.8 19.3 19.3 0 00-13.5 4.2z"/><path class="st0" d="M252.3 556l25.2 21.4v-7.1l-46.3 52.4h7.1L210 598.3a5.1 5.1 0 00-6.1-.8 163.3 163.3 0 01-127.3 20.1 101.2 101.2 0 01-53.3-31.5 63.5 63.5 0 01-9.9-59.2c6.9-23.1 26.1-38.6 46.4-50a5.2 5.2 0 001-7.9c-17.2-18.7-26.9-43-18.1-68 8.1-23.2 31-37.1 53.7-43 43.2-11.2 115.4-1.4 118 55.3a58.5 58.5 0 01-11.3 38.1 104.9 104.9 0 01-32.4 26.4c-2.6 1.5-3.5 5.8-1 7.8l28.3 24.1c2.2 1.9 6.5 2.2 7.9-1 5-11.5 8.7-23.6 10.8-36l-6.1 3.5 69.2 20.7-3.5-6.2c-4.7 21-13.1 41.1-24.7 59.2-3.5 5.4 5.1 10.4 8.6 5a194.3 194.3 0 0025.8-61.6c.7-2.7-.9-5.4-3.5-6.2l-69.2-20.7c-2.4-.7-5.7.9-6.1 3.5a145.5 145.5 0 01-9.8 33.6l7.9-1-28.3-24.1-1 7.8c24.1-13.8 45.2-33.3 48.4-62.3a67.8 67.8 0 00-36.2-67.4c-25.7-13.8-57.9-15.4-86.2-10.1-26 4.9-52.6 18.8-65 43.3a69.2 69.2 0 00-6 44.5 87.2 87.2 0 0023.1 41.7l1-7.8c-19.5 11-38.3 25.7-47.5 46.7a77 77 0 00.9 66.3c23 42.6 80.3 54.3 124.5 50.5 27.1-2.2 53.3-11 76.3-25.7l-6.1-.8 28.3 24.5c2 1.7 5.2 2.1 7.1 0l46.3-52.4c1.7-1.9 2.2-5.2 0-7.1l-25.2-21.4c-5.2-3.9-12.3 3.2-7.4 7.3z"/><path class="st0" d="M157.2 553.2l-49-42.1c-1.5-1.3-4.2-2.1-6.1-.8A39.6 39.6 0 0085.5 533c-2 9.3.1 18.8 7.3 25.3 16.7 15.3 44.4 10.7 63.3 2.7 5.9-2.5.8-11.1-5-8.6-14.1 6-35 9.9-48.8.7-14-9.4-6-26.2 4.9-34.2l-6.1-.8 49 42.1c4.9 4.2 12-2.8 7.1-7zM114 405.5a20.6 20.6 0 00-5.4 20.8c2.2 7.5 8.5 13.5 14 18.8a5.1 5.1 0 006.1.8c11.6-6.5 27.2-17.3 22.7-32.9-4.5-15.7-26.4-16.3-37.4-7.5-5 4 2.1 11.1 7.1 7.1 6.3-5.1 22.5-3.9 21.1 7-1.1 8.4-12.1 14.1-18.5 17.7l6.1.8c-6.4-6.1-17.6-16.7-8.6-25.4 4.5-4.6-2.6-11.6-7.2-7.2z"/><path class="st1" d="M434 239.5V256h-50.5v-13.1l22.8-21.1c1.6-1.4 2.9-3 4-4.8.6-1.2 1-2.5 1-3.9.1-1.4-.5-2.7-1.6-3.6a6.6 6.6 0 00-4.5-1.3 10.2 10.2 0 00-9.3 5.8l-16-8a27 27 0 0110.5-10.7 33.5 33.5 0 0116.7-3.9c4.5-.1 9 .7 13.2 2.4 3.6 1.4 6.7 3.8 9 6.9 2.2 3 3.3 6.6 3.2 10.4 0 3.4-.7 6.7-2.2 9.8-1.5 3-4.3 6.5-8.6 10.3l-9 8.2 21.3.1zM452 253.5a26.9 26.9 0 01-10.1-11.3 44.5 44.5 0 010-35.4c2.2-4.7 5.7-8.6 10.1-11.3a30 30 0 0129.6 0c4.4 2.7 7.9 6.7 10.1 11.3a44.5 44.5 0 010 35.4 26.3 26.3 0 01-10.1 11.3 30 30 0 01-29.6 0zm22-29c0-10.6-2.4-15.9-7.2-15.9-4.8 0-7.2 5.3-7.2 15.9s2.4 15.9 7.2 15.9c4.8 0 7.2-5.3 7.2-15.9zM550.1 239.5V256h-50.5v-13.1l22.8-21.1c1.6-1.4 2.9-3 4-4.8.6-1.2 1-2.5 1-3.9.1-1.4-.5-2.7-1.6-3.6a6.6 6.6 0 00-4.5-1.3 10.2 10.2 0 00-9.3 5.8l-16-8c2.4-4.5 6-8.2 10.4-10.7a33.5 33.5 0 0116.7-3.9c4.5-.1 9 .7 13.3 2.4 3.6 1.4 6.7 3.8 9 6.9 2.2 3 3.3 6.6 3.2 10.4 0 3.4-.7 6.7-2.2 9.8-1.5 3-4.3 6.5-8.6 10.3l-9 8.2 21.3.1zM584.3 193v63H563v-47h-10.8v-16h32.1z"/></svg>